<mxfile host="app.diagrams.net" modified="2024-03-19T09:52:14.692Z" agent="Mozilla/5.0 (Macintosh; Intel Mac OS X 10_15_7) AppleWebKit/537.36 (KHTML, like Gecko) Chrome/122.0.0.0 Safari/537.36" version="23.1.5" etag="4xvd83oxoxULdlGf0a5_" type="github">
  <diagram name="第 1 页" id="KWD9YYWFuL8m4d8oPABw">
    <mxGraphModel>
      <root>
        <mxCell id="0" />
        <mxCell id="1" parent="0" />
      </root>
    </mxGraphModel>
  </diagram>
</mxfile>
